PathFileType	4	(X/Y/Z)	C:/Users/opensim2020/Desktop/walking_exp_matlab/subject06_walking22_straight_01.trc	
DataRate	CameraRate	NumFrames	NumMarkers	Units	OrigDataRate	OrigDataStartFrame	OrigNumFrames	
100.00	100.00	9	44	mm	100.00	759	141	
Frame#	Time	LFHD			RFHD			LBHD			RBHD			C7			T10			CLAV			STRN			RBAK			LSHO			LUPA			LELB			LFRM			LWRA			LWRB			LFIN			RSHO			RUPA			RELB			RFRM			RWRA			RWRB			RFIN			LASI			RASI			LPSI			RPSI			LTHI			LKNE			LTIB			LANK			LHEE			LTOE			RTHI			RKNE			RTIB			RANK			RHEE			RTOE			*39			*40			*41			*42			*43			
		X1	Y1	Z1	X2	Y2	Z2	X3	Y3	Z3	X4	Y4	Z4	X5	Y5	Z5	X6	Y6	Z6	X7	Y7	Z7	X8	Y8	Z8	X9	Y9	Z9	X10	Y10	Z10	X11	Y11	Z11	X12	Y12	Z12	X13	Y13	Z13	X14	Y14	Z14	X15	Y15	Z15	X16	Y16	Z16	X17	Y17	Z17	X18	Y18	Z18	X19	Y19	Z19	X20	Y20	Z20	X21	Y21	Z21	X22	Y22	Z22	X23	Y23	Z23	X24	Y24	Z24	X25	Y25	Z25	X26	Y26	Z26	X27	Y27	Z27	X28	Y28	Z28	X29	Y29	Z29	X30	Y30	Z30	X31	Y31	Z31	X32	Y32	Z32	X33	Y33	Z33	X34	Y34	Z34	X35	Y35	Z35	X36	Y36	Z36	X37	Y37	Z37	X38	Y38	Z38	X39	Y39	Z39	X40	Y40	Z40	X41	Y41	Z41	X42	Y42	Z42	X43	Y43	Z43	X44	Y44	Z44	

18	0.170	1362.44690	-778.99695	1651.01050	1493.67334	-768.35205	1640.22925	1373.78784	-915.70294	1607.42798	1502.34021	-903.21661	1601.30774	1423.52942	-925.64966	1452.02356	1432.15564	-993.30701	1128.60754	1423.05200	-823.34888	1364.53784	1412.53857	-801.59937	1185.95776	1500.32104	-1015.03101	1289.07190	1262.24451	-869.05560	1406.54089	1185.03210	-855.32428	1206.86584	1169.26892	-841.95221	1094.74133	1148.43359	-753.75555	974.59021	1190.17822	-640.83337	912.78387	1157.32788	-690.29865	873.89764	1154.40247	-611.42279	829.26697	1583.88721	-864.60870	1397.76196	1671.54016	-933.84277	1209.46655	1686.00916	-944.75940	1087.84900	1705.71460	-948.65552	968.07587	1678.18433	-909.20441	822.08118	1716.68005	-964.54718	830.06262	1717.79358	-937.65125	749.21381	1314.79895	-836.67004	954.67432	1535.12964	-827.31299	957.49158	1352.93298	-989.25403	995.22675	1520.22778	-977.43549	989.70715	1266.66406	-936.52740	650.34296	1293.22290	-960.75171	487.98248	1314.01245	-1028.18713	238.93250	1365.81165	-1049.91199	70.15601	1412.91724	-1089.89905	57.27584	1362.50928	-909.66187	44.33914	1595.28674	-793.11279	646.01599	1569.59656	-736.16516	535.11920	1566.52649	-796.09009	278.72836	1523.27478	-830.77869	96.20882	1474.89197	-868.19574	71.99185	1541.34021	-686.01746	56.40288	1429.45410	-870.57159	1696.98486												 
19	0.180	1363.13208	-767.54767	1649.88293	1494.31873	-757.53162	1638.70569	1373.83545	-904.38800	1606.47668	1502.47571	-892.40411	1599.98218	1423.14771	-914.87451	1450.90601	1431.67383	-982.67175	1127.50159	1422.94849	-812.58081	1363.33093	1412.09875	-791.06348	1184.76782	1499.27075	-1004.60114	1287.84521	1262.03430	-857.90491	1405.65320	1184.59863	-843.50848	1206.25122	1168.78210	-829.81927	1094.26465	1148.95703	-739.04895	976.16681	1191.82605	-625.07831	917.57245	1158.76917	-672.93884	877.13586	1156.92346	-592.86719	834.75073	1583.64807	-854.69214	1396.39551	1670.82434	-925.08527	1208.42834	1685.62451	-935.75458	1086.52051	1705.23669	-940.88623	967.04620	1678.25842	-902.16943	820.87415	1716.29700	-957.63550	829.14844	1717.86621	-931.42664	748.26129	1314.43774	-826.22443	953.30951	1534.58069	-816.14343	956.50354	1352.93616	-978.94092	994.21228	1520.07678	-966.46375	988.68164	1266.88794	-928.54724	649.20020	1293.50208	-954.25201	486.96310	1314.21228	-1024.92212	238.74194	1366.15906	-1049.19446	70.30400	1413.18213	-1089.42712	57.75558	1362.38062	-908.94501	43.83003	1595.37659	-782.69421	645.46783	1570.08057	-724.56744	534.89923	1565.79150	-771.08392	275.37137	1521.76892	-795.58765	91.50056	1473.32104	-832.21863	66.45998	1537.14404	-649.19214	55.91079	1429.91858	-859.33722	1695.79797												 
20	0.190	1363.87451	-756.59320	1648.39746	1495.16394	-746.45135	1637.05994	1373.89587	-892.93695	1605.37842	1502.54114	-881.42975	1598.43494	1422.76648	-903.91595	1449.58203	1431.11792	-971.85883	1126.17126	1422.85107	-801.81818	1361.93579	1411.72534	-780.32813	1183.46130	1498.30908	-994.12512	1286.46887	1261.89001	-846.48743	1404.59924	1184.18091	-831.66687	1205.48706	1168.28845	-817.57983	1093.55713	1149.82666	-724.21405	977.59735	1193.35266	-609.41785	922.28345	1160.38904	-656.03485	880.20178	1159.47632	-574.60693	840.09448	1583.40979	-844.66650	1394.91284	1670.10962	-916.11389	1207.20337	1684.84399	-927.78290	1085.60547	1704.77686	-933.18750	965.97479	1678.46240	-894.95129	819.60388	1716.02747	-950.65063	828.16327	1717.94861	-924.97272	747.04694	1313.49194	-816.26825	951.69049	1533.87122	-804.96490	955.31134	1352.83508	-968.45673	992.77942	1519.95947	-955.25067	987.52856	1267.19519	-920.10040	647.77069	1293.81445	-947.32288	485.80661	1313.77649	-1021.45203	238.50966	1366.71252	-1048.43506	70.44308	1413.47742	-1088.75403	58.28247	1362.15784	-908.10284	43.19657	1595.50220	-772.74567	644.49207	1570.55811	-713.57007	534.00140	1564.98975	-746.80341	272.51828	1520.57605	-760.56476	87.50798	1472.39917	-796.23895	61.78248	1533.14771	-612.51898	55.93734	1430.40540	-847.99664	1694.43738												 
21	0.200	1364.67737	-744.52881	1647.09521	1495.94397	-735.44989	1635.26160	1374.01050	-881.42383	1604.14014	1502.69421	-870.48236	1596.83972	1422.42822	-892.87311	1448.12781	1430.70825	-960.97046	1124.68469	1422.80981	-790.79340	1360.41382	1411.40076	-769.35382	1181.99097	1497.34729	-983.46881	1284.91199	1261.72607	-835.06299	1403.33472	1183.86047	-819.79004	1204.42834	1167.80322	-805.60223	1092.64941	1150.47266	-709.82092	978.63116	1195.29907	-594.04608	926.49829	1162.27234	-639.30359	883.36938	1162.16858	-556.98743	845.04388	1583.22095	-834.49561	1393.24976	1669.44971	-907.08911	1205.89368	1684.34119	-919.26672	1084.40063	1704.46301	-925.34509	964.83337	1678.77222	-887.53003	818.21350	1715.78296	-943.47852	827.10205	1718.09485	-918.32599	745.93500	1312.84839	-805.91101	949.98376	1533.15747	-793.56372	954.04333	1352.65613	-958.20496	991.32031	1519.85486	-943.88019	986.21515	1267.28516	-911.67145	646.42859	1294.17834	-939.90839	484.50882	1314.51807	-1017.08740	237.96860	1367.02222	-1047.46741	70.64999	1413.79590	-1088.04614	58.95534	1362.05432	-907.18536	42.52977	1595.25342	-763.13654	642.92413	1570.82788	-703.05377	532.55627	1564.26501	-723.29285	269.95361	1519.76550	-726.02911	84.40260	1471.57874	-760.69995	57.88265	1529.77026	-576.16187	57.01437	1430.96362	-836.54608	1693.00244												 
22	0.210	1365.55188	-732.78052	1645.50757	1496.74658	-724.44250	1633.32227	1374.20007	-869.81531	1602.74036	1502.89233	-859.48810	1595.15649	1422.03149	-881.41376	1446.46057	1430.32092	-949.92999	1123.02112	1422.74109	-779.72980	1358.69861	1410.97412	-758.44360	1180.36121	1496.46863	-972.67749	1283.12842	1261.56580	-823.47211	1401.92700	1183.48120	-807.96875	1203.17419	1167.41016	-793.57751	1091.48340	1151.14148	-695.67371	979.56818	1197.01538	-578.95050	930.61786	1164.11279	-622.82239	886.02509	1164.81982	-539.81207	849.77179	1583.08289	-824.14783	1391.43164	1668.89722	-897.96735	1204.46643	1683.89209	-910.97620	1083.10693	1704.28296	-917.17944	963.40094	1679.14661	-879.88074	816.72534	1715.79846	-936.13037	826.04926	1718.33496	-911.45929	744.66327	1312.26453	-795.34058	948.21106	1532.76770	-781.46222	952.96844	1352.68079	-947.47107	989.58972	1519.83716	-932.38617	984.74933	1267.62793	-902.68530	644.82916	1294.67493	-931.95746	483.02182	1314.45898	-1012.74542	237.48055	1367.32800	-1046.31104	70.84972	1414.06372	-1087.20276	59.69715	1362.06616	-906.20660	41.69913	1595.19177	-753.37225	641.13867	1570.81116	-692.86517	530.54150	1563.63818	-700.50720	267.68826	1519.41187	-691.98145	82.11047	1471.50635	-725.91302	54.81679	1526.66663	-540.32379	58.97054	1431.51306	-825.05231	1691.38879												 
23	0.220	1366.50110	-720.95197	1643.76758	1497.71741	-713.11554	1631.31885	1374.31836	-858.00122	1601.20374	1503.10693	-848.31372	1593.33032	1421.88416	-870.36810	1444.80127	1430.02417	-938.73846	1121.22314	1422.70178	-768.50317	1356.88647	1410.72559	-747.18127	1178.58545	1495.62903	-961.68469	1281.19910	1261.40625	-811.67920	1400.32922	1183.13257	-796.17578	1201.70789	1166.95886	-781.66168	1090.15332	1151.80798	-681.78125	980.21783	1198.64221	-564.28412	934.44440	1166.08533	-607.13977	888.53326	1167.48010	-523.14752	854.08972	1582.97534	-813.67645	1389.43213	1668.38184	-888.61115	1202.85571	1683.48291	-902.10022	1081.56042	1704.09167	-909.09247	962.02960	1679.65564	-871.97034	815.13849	1715.93384	-928.39020	824.74042	1718.78662	-904.04492	743.19141	1311.65918	-784.55933	946.29889	1531.97815	-769.81171	951.47943	1352.61841	-936.58801	987.64606	1519.72302	-921.02313	983.17810	1267.68372	-893.39087	643.08429	1295.11340	-923.71326	481.46298	1314.35425	-1008.75055	237.15659	1367.59277	-1045.17883	71.15060	1414.26208	-1086.33655	60.47380	1361.99792	-905.14941	40.99412	1595.27234	-743.19104	639.25946	1570.39746	-682.59265	528.08325	1563.04358	-678.17493	265.73648	1519.29785	-658.72375	80.73994	1471.81006	-691.66040	52.32498	1523.96741	-505.49005	62.44871	1432.11853	-813.43091	1689.64246												 
24	0.230	1367.44409	-708.99915	1641.93298	1498.71240	-701.78430	1629.24182	1374.59692	-846.14661	1599.53662	1503.38940	-837.10223	1591.43359	1421.65906	-858.93188	1443.00403	1429.83862	-927.47705	1119.38464	1422.82227	-756.95593	1355.08057	1410.50342	-735.86163	1176.69104	1494.87903	-950.59503	1279.20972	1261.37793	-799.94385	1398.65186	1182.75708	-784.33514	1200.11121	1166.48364	-769.98029	1088.55957	1152.43787	-667.98016	980.57428	1200.24036	-549.83807	937.96533	1168.21130	-591.53003	890.60706	1170.23853	-506.88766	858.00702	1582.90540	-802.94574	1387.29126	1667.91541	-879.11261	1201.19495	1683.29724	-893.22461	1080.00647	1704.18054	-900.69501	960.52344	1680.23364	-863.81299	813.48877	1716.21704	-920.38831	823.31317	1719.27710	-896.46246	741.68921	1311.14172	-773.72656	944.34729	1531.17749	-757.89667	950.00995	1352.67542	-925.64172	985.53790	1519.74512	-909.22791	981.44714	1267.89880	-883.77490	641.24536	1295.56348	-915.36945	479.88443	1314.23523	-1004.47034	236.74675	1367.76099	-1044.21606	71.52396	1414.43103	-1085.60730	61.39871	1361.63013	-904.17694	40.56113	1594.93604	-732.53986	636.90826	1569.76331	-672.18195	525.46295	1562.37463	-656.29004	264.15018	1519.33618	-626.72998	80.22072	1472.15112	-658.51221	50.31537	1521.48145	-472.40344	67.45318	1432.71216	-801.70691	1687.81995												 
25	0.240	1368.47400	-696.88538	1640.01794	1499.69104	-690.49146	1627.00293	1374.88342	-834.12842	1597.74854	1503.73779	-825.81311	1589.42407	1421.42065	-847.05267	1440.95703	1429.64929	-916.05688	1117.45874	1422.83923	-745.53210	1353.08179	1410.14807	-724.49188	1174.70117	1494.20215	-939.38843	1277.10461	1261.23352	-787.83484	1396.84070	1182.36414	-772.61755	1198.31409	1166.11475	-758.02795	1086.79077	1153.14636	-654.65302	980.72760	1201.64404	-535.71198	941.12189	1170.36304	-576.29730	892.54633	1173.06641	-490.92880	861.51685	1582.89783	-792.12122	1385.04956	1667.58081	-869.45300	1199.28516	1683.23523	-884.15009	1078.29944	1704.39246	-892.02441	958.87903	1680.88977	-855.46655	811.71735	1716.64197	-912.08740	821.79138	1719.87524	-888.49670	740.02618	1310.58313	-762.72858	942.34320	1530.48267	-745.90320	948.40485	1352.68213	-914.16943	983.10309	1519.84680	-897.24786	979.53046	1268.01367	-874.48169	639.45306	1295.95215	-906.85376	478.22888	1314.28772	-1000.67871	236.62746	1367.79138	-1043.66064	72.22009	1414.54565	-1084.98621	62.49084	1361.79138	-903.66620	40.14357	1595.02478	-721.04193	634.82849	1569.09680	-661.31763	522.64832	1562.02197	-634.62823	262.75122	1519.07068	-596.30170	80.38010	1472.26367	-627.19617	48.86328	1519.35559	-441.33469	74.29487	1433.40210	-789.93402	1685.86304												 
26	0.250	1369.52795	-684.80994	1638.04468	1500.84692	-678.95984	1624.93103	1375.26147	-822.07037	1595.79871	1504.18127	-814.38495	1587.35571	1421.41492	-835.61517	1439.15234	1429.53491	-904.43036	1115.42969	1423.00903	-733.77325	1350.96802	1409.87781	-712.84595	1172.70581	1493.55627	-927.92120	1274.90454	1261.23499	-775.63812	1395.02075	1182.19189	-760.79773	1196.44275	1165.80444	-746.36218	1084.97534	1153.79419	-641.33118	980.58472	1203.03918	-521.87988	943.92535	1172.27881	-561.29102	894.11078	1175.83069	-475.54807	864.74493	1582.92542	-781.06750	1382.63501	1667.26965	-859.61981	1197.37390	1683.30701	-874.90070	1076.49109	1704.81299	-883.04218	957.14594	1681.76440	-846.74719	809.88586	1717.22925	-903.48987	820.14655	1720.71362	-880.09802	738.32568	1310.15222	-751.40082	940.25183	1529.77698	-733.78790	947.08362	1353.02661	-903.29590	981.19971	1520.12292	-885.00031	977.54565	1268.36755	-864.64996	637.62732	1296.32092	-898.32629	476.58957	1314.15930	-996.84357	236.65404	1367.72412	-1043.21094	73.15544	1414.56714	-1084.36450	63.73910	1361.61182	-903.20654	39.79305	1595.11450	-708.73901	632.69220	1568.54480	-649.83667	519.74115	1561.47449	-613.77979	261.73065	1518.39661	-567.60211	81.12897	1471.98035	-597.41510	48.18521	1517.25049	-412.27924	81.87965	1434.08179	-778.05658	1683.85852												 
